<mxfile host="app.diagrams.net" modified="2024-07-18T19:03:24.533Z" agent="Mozilla/5.0 (Windows NT 10.0; Win64; x64; rv:128.0) Gecko/20100101 Firefox/128.0" etag="9q92jQlm-4v6NBBu2eD7" version="24.6.5" type="device">
  <diagram name="Page-1" id="c9db0220-8083-56f3-ca83-edcdcd058819">
    <mxGraphModel dx="2003" dy="2518" grid="1" gridSize="10" guides="1" tooltips="1" connect="1" arrows="1" fold="1" page="1" pageScale="1.5" pageWidth="826" pageHeight="1169" background="none" math="0" shadow="0">
      <root>
        <mxCell id="0" style=";html=1;" />
        <mxCell id="1" style=";html=1;" parent="0" />
        <mxCell id="3d76a8aef4d5c911-1" value="" style="html=1;shadow=0;dashed=0;shape=mxgraph.bootstrap.rect;fillColor=#222222;strokeColor=none;whiteSpace=wrap;rounded=0;fontSize=12;fontColor=#000000;align=center;" parent="1" vertex="1">
          <mxGeometry x="40" y="70" width="1150" height="40" as="geometry" />
        </mxCell>
        <mxCell id="3d76a8aef4d5c911-2" value="Home" style="html=1;shadow=0;dashed=0;fillColor=none;strokeColor=none;shape=mxgraph.bootstrap.rect;fontColor=#999999;fontSize=14;whiteSpace=wrap;" parent="3d76a8aef4d5c911-1" vertex="1">
          <mxGeometry width="115" height="40" as="geometry" />
        </mxCell>
        <mxCell id="3d76a8aef4d5c911-3" value="Register" style="html=1;shadow=0;dashed=0;shape=mxgraph.bootstrap.rect;fillColor=#000000;strokeColor=none;fontColor=#ffffff;spacingRight=0;whiteSpace=wrap;align=center;" parent="3d76a8aef4d5c911-1" vertex="1">
          <mxGeometry x="115" width="129.375" height="40" as="geometry" />
        </mxCell>
        <mxCell id="3d76a8aef4d5c911-5" value="Appointments" style="html=1;shadow=0;dashed=0;fillColor=none;strokeColor=none;shape=mxgraph.bootstrap.rect;fontColor=#999999;spacingRight=0;whiteSpace=wrap;" parent="3d76a8aef4d5c911-1" vertex="1">
          <mxGeometry x="244.38" width="135.63" height="40" as="geometry" />
        </mxCell>
        <mxCell id="3d76a8aef4d5c911-7" value="Others" style="html=1;shadow=0;dashed=0;fillColor=none;strokeColor=none;shape=mxgraph.bootstrap.rect;fontColor=#999999;whiteSpace=wrap;" parent="3d76a8aef4d5c911-1" vertex="1">
          <mxGeometry x="380.01" width="115" height="40" as="geometry" />
        </mxCell>
        <mxCell id="3d76a8aef4d5c911-8" value="Community" style="html=1;shadow=0;dashed=0;fillColor=none;strokeColor=none;shape=mxgraph.bootstrap.rect;fontColor=#999999;whiteSpace=wrap;" parent="3d76a8aef4d5c911-1" vertex="1">
          <mxGeometry x="517.5" width="100.625" height="40" as="geometry" />
        </mxCell>
        <mxCell id="3d76a8aef4d5c911-9" value="My Accout" style="html=1;shadow=0;dashed=0;fillColor=none;strokeColor=none;shape=mxgraph.bootstrap.rect;fontColor=#999999;whiteSpace=wrap;" parent="3d76a8aef4d5c911-1" vertex="1">
          <mxGeometry x="948.75" width="100.625" height="40" as="geometry" />
        </mxCell>
        <mxCell id="3d76a8aef4d5c911-10" value="Log Out" style="html=1;shadow=0;dashed=0;fillColor=none;strokeColor=none;shape=mxgraph.bootstrap.rect;fontColor=#999999;whiteSpace=wrap;" parent="3d76a8aef4d5c911-1" vertex="1">
          <mxGeometry x="1049.375" width="100.625" height="40" as="geometry" />
        </mxCell>
        <mxCell id="3d76a8aef4d5c911-11" value="" style="html=1;shadow=0;dashed=0;shape=mxgraph.bootstrap.rrect;rSize=5;strokeColor=#dddddd;rounded=0;fontSize=12;align=center;" parent="1" vertex="1">
          <mxGeometry x="860" y="150" width="330" height="400" as="geometry" />
        </mxCell>
        <mxCell id="3d76a8aef4d5c911-12" value="320x200" style="shape=rect;fontSize=24;fillColor=#f0f0f0;strokeColor=none;fontColor=#999999;whiteSpace=wrap;" parent="3d76a8aef4d5c911-11" vertex="1">
          <mxGeometry x="5" y="5" width="320" height="200" as="geometry" />
        </mxCell>
        <mxCell id="3d76a8aef4d5c911-13" value="Thumbnail label" style="html=1;shadow=0;dashed=0;shape=mxgraph.bootstrap.anchor;fontSize=26;align=left;whiteSpace=wrap;" parent="3d76a8aef4d5c911-11" vertex="1">
          <mxGeometry x="15" y="220" width="300" height="40" as="geometry" />
        </mxCell>
        <mxCell id="3d76a8aef4d5c911-14" value="Cras justo odio, dapibus ac facilisis in, egestas eget quam. Donec id elit non mi porta gravida at eget metus. Nullam id dolor id nibh ultricies vehicula ut id elit." style="html=1;shadow=0;dashed=0;shape=mxgraph.bootstrap.anchor;strokeColor=#dddddd;whiteSpace=wrap;align=left;verticalAlign=top;fontSize=14;whiteSpace=wrap;" parent="3d76a8aef4d5c911-11" vertex="1">
          <mxGeometry x="15" y="260" width="300" height="80" as="geometry" />
        </mxCell>
        <mxCell id="3d76a8aef4d5c911-15" value="Button" style="html=1;shadow=0;dashed=0;shape=mxgraph.bootstrap.rrect;rSize=5;fontSize=16;fillColor=#3D8BCD;strokeColor=none;fontColor=#ffffff;whiteSpace=wrap;" parent="3d76a8aef4d5c911-11" vertex="1">
          <mxGeometry y="1" width="80" height="40" relative="1" as="geometry">
            <mxPoint x="15" y="-60" as="offset" />
          </mxGeometry>
        </mxCell>
        <mxCell id="3d76a8aef4d5c911-16" value="Button" style="html=1;shadow=0;dashed=0;shape=mxgraph.bootstrap.rrect;rSize=5;fontSize=16;strokeColor=#dddddd;whiteSpace=wrap;" parent="3d76a8aef4d5c911-11" vertex="1">
          <mxGeometry y="1" width="80" height="40" relative="1" as="geometry">
            <mxPoint x="100" y="-60" as="offset" />
          </mxGeometry>
        </mxCell>
        <mxCell id="3d76a8aef4d5c911-17" value="Firstname &lt;font color=&quot;#cc0000&quot;&gt;*&lt;/font&gt;" style="html=1;shadow=0;dashed=0;shape=mxgraph.bootstrap.rect;strokeColor=none;fillColor=none;fontColor=#999999;align=left;spacingLeft=5;whiteSpace=wrap;rounded=0;" parent="1" vertex="1">
          <mxGeometry x="40" y="240" width="160" height="20" as="geometry" />
        </mxCell>
        <mxCell id="3d76a8aef4d5c911-18" value="Sam" style="html=1;shadow=0;dashed=0;shape=mxgraph.bootstrap.rrect;rSize=5;strokeColor=#dddddd;;align=left;spacingLeft=10;fontSize=16;whiteSpace=wrap;rounded=0;" parent="1" vertex="1">
          <mxGeometry x="40" y="260" width="280" height="40" as="geometry" />
        </mxCell>
        <mxCell id="3d76a8aef4d5c911-19" value="Patient symptom (Optional)" style="html=1;shadow=0;dashed=0;shape=mxgraph.bootstrap.rect;strokeColor=none;fillColor=none;fontColor=#999999;align=left;spacingLeft=5;whiteSpace=wrap;rounded=0;" parent="1" vertex="1">
          <mxGeometry x="40" y="960" width="200" height="20" as="geometry" />
        </mxCell>
        <mxCell id="3d76a8aef4d5c911-20" value="" style="html=1;shadow=0;dashed=0;shape=mxgraph.bootstrap.rrect;rSize=5;strokeColor=#dddddd;align=left;spacingLeft=10;fontSize=16;whiteSpace=wrap;rounded=0;" parent="1" vertex="1">
          <mxGeometry x="40" y="980" width="800" height="40" as="geometry" />
        </mxCell>
        <mxCell id="3d76a8aef4d5c911-23" value="Patient details (Optional)" style="html=1;shadow=0;dashed=0;shape=mxgraph.bootstrap.rect;strokeColor=none;fillColor=none;fontColor=#999999;align=left;spacingLeft=5;whiteSpace=wrap;rounded=0;" parent="1" vertex="1">
          <mxGeometry x="40" y="1040" width="200" height="20" as="geometry" />
        </mxCell>
        <mxCell id="3d76a8aef4d5c911-24" value="Allergy to seafood" style="html=1;shadow=0;dashed=0;shape=mxgraph.bootstrap.rrect;rSize=5;fontSize=12;strokeColor=#dddddd;align=left;spacing=10;verticalAlign=top;whiteSpace=wrap;rounded=0;" parent="1" vertex="1">
          <mxGeometry x="40" y="1060" width="800" height="220" as="geometry" />
        </mxCell>
        <mxCell id="3d76a8aef4d5c911-51" value="Sumbit" style="html=1;shadow=0;dashed=0;shape=mxgraph.bootstrap.rrect;align=center;rSize=5;strokeColor=none;fillColor=#3D8BCD;fontColor=#ffffff;fontSize=16;whiteSpace=wrap;rounded=0;" parent="1" vertex="1">
          <mxGeometry x="40" y="1320" width="150" height="40" as="geometry" />
        </mxCell>
        <mxCell id="3d76a8aef4d5c911-52" value="Cancel" style="html=1;shadow=0;dashed=0;shape=mxgraph.bootstrap.rrect;align=center;rSize=5;strokeColor=#dddddd;fontSize=16;whiteSpace=wrap;rounded=0;" parent="1" vertex="1">
          <mxGeometry x="210" y="1320" width="100" height="40" as="geometry" />
        </mxCell>
        <mxCell id="3d76a8aef4d5c911-53" value="Clear" style="html=1;shadow=0;dashed=0;shape=mxgraph.bootstrap.rrect;align=center;rSize=5;strokeColor=none;fillColor=#DB524C;fontColor=#ffffff;fontSize=16;whiteSpace=wrap;rounded=0;" parent="1" vertex="1">
          <mxGeometry x="670" y="1320" width="170" height="40" as="geometry" />
        </mxCell>
        <mxCell id="3d76a8aef4d5c911-54" value="" style="html=1;shadow=0;dashed=0;shape=mxgraph.bootstrap.rrect;rSize=5;strokeColor=#dddddd;rounded=0;fontSize=12;align=center;" parent="1" vertex="1">
          <mxGeometry x="860" y="580" width="330" height="400" as="geometry" />
        </mxCell>
        <mxCell id="3d76a8aef4d5c911-55" value="320x200" style="shape=rect;fontSize=24;fillColor=#f0f0f0;strokeColor=none;fontColor=#999999;whiteSpace=wrap;" parent="3d76a8aef4d5c911-54" vertex="1">
          <mxGeometry x="5" y="5" width="320" height="200" as="geometry" />
        </mxCell>
        <mxCell id="3d76a8aef4d5c911-56" value="Thumbnail label" style="html=1;shadow=0;dashed=0;shape=mxgraph.bootstrap.anchor;fontSize=26;align=left;whiteSpace=wrap;" parent="3d76a8aef4d5c911-54" vertex="1">
          <mxGeometry x="15" y="220" width="300" height="40" as="geometry" />
        </mxCell>
        <mxCell id="3d76a8aef4d5c911-57" value="Cras justo odio, dapibus ac facilisis in, egestas eget quam. Donec id elit non mi porta gravida at eget metus. Nullam id dolor id nibh ultricies vehicula ut id elit." style="html=1;shadow=0;dashed=0;shape=mxgraph.bootstrap.anchor;strokeColor=#dddddd;whiteSpace=wrap;align=left;verticalAlign=top;fontSize=14;whiteSpace=wrap;" parent="3d76a8aef4d5c911-54" vertex="1">
          <mxGeometry x="15" y="260" width="300" height="80" as="geometry" />
        </mxCell>
        <mxCell id="3d76a8aef4d5c911-58" value="Button" style="html=1;shadow=0;dashed=0;shape=mxgraph.bootstrap.rrect;rSize=5;fontSize=16;fillColor=#3D8BCD;strokeColor=none;fontColor=#ffffff;whiteSpace=wrap;" parent="3d76a8aef4d5c911-54" vertex="1">
          <mxGeometry y="1" width="80" height="40" relative="1" as="geometry">
            <mxPoint x="15" y="-60" as="offset" />
          </mxGeometry>
        </mxCell>
        <mxCell id="3d76a8aef4d5c911-59" value="Button" style="html=1;shadow=0;dashed=0;shape=mxgraph.bootstrap.rrect;rSize=5;fontSize=16;strokeColor=#dddddd;whiteSpace=wrap;" parent="3d76a8aef4d5c911-54" vertex="1">
          <mxGeometry y="1" width="80" height="40" relative="1" as="geometry">
            <mxPoint x="100" y="-60" as="offset" />
          </mxGeometry>
        </mxCell>
        <mxCell id="3RXiinGD9AzOw28SL5Pv-1" value="&lt;font color=&quot;#006600&quot; size=&quot;1&quot; face=&quot;Verdana&quot;&gt;&lt;b&gt;&lt;span style=&quot;line-height: 107%; font-size: 36px;&quot; lang=&quot;EN-US&quot;&gt;Hospital&lt;/span&gt;&lt;/b&gt;&lt;/font&gt;&lt;font color=&quot;#ff0000&quot; size=&quot;1&quot; face=&quot;Verdana&quot;&gt;&lt;b&gt;&lt;span style=&quot;line-height: 107%; font-size: 36px;&quot; lang=&quot;EN-US&quot;&gt;+&lt;/span&gt;&lt;/b&gt;&lt;/font&gt;" style="text;html=1;align=center;verticalAlign=middle;whiteSpace=wrap;rounded=0;fillColor=#f5f5f5;strokeColor=#666666;fontColor=#333333;" vertex="1" parent="1">
          <mxGeometry x="40" y="20" width="1150" height="50" as="geometry" />
        </mxCell>
        <mxCell id="3RXiinGD9AzOw28SL5Pv-2" value="&lt;font face=&quot;Verdana&quot; color=&quot;#006600&quot;&gt;&lt;b&gt;1. Personal Information&lt;br&gt;&lt;/b&gt;&lt;/font&gt;" style="text;html=1;align=left;verticalAlign=middle;whiteSpace=wrap;rounded=0;" vertex="1" parent="1">
          <mxGeometry x="40" y="200" width="800" height="40" as="geometry" />
        </mxCell>
        <mxCell id="3RXiinGD9AzOw28SL5Pv-4" value="" style="strokeWidth=1;shadow=0;dashed=0;align=center;html=1;shape=mxgraph.mockup.forms.rrect;rSize=5;strokeColor=#999999;fillColor=#ffffff;" vertex="1" parent="1">
          <mxGeometry x="560" y="330" width="280" height="200" as="geometry" />
        </mxCell>
        <mxCell id="3RXiinGD9AzOw28SL5Pv-5" value="October 1962" style="strokeWidth=1;shadow=0;dashed=0;align=center;html=1;shape=mxgraph.mockup.forms.anchor;fontColor=#999999;" vertex="1" parent="3RXiinGD9AzOw28SL5Pv-4">
          <mxGeometry x="52.5" y="9.142857142857142" width="174.99999999999997" height="22.857142857142854" as="geometry" />
        </mxCell>
        <mxCell id="3RXiinGD9AzOw28SL5Pv-6" value="&lt;" style="strokeWidth=1;shadow=0;dashed=0;align=center;html=1;shape=mxgraph.mockup.forms.rrect;rSize=4;strokeColor=#999999;fontColor=#008cff;fontSize=19;fontStyle=1;" vertex="1" parent="3RXiinGD9AzOw28SL5Pv-4">
          <mxGeometry x="14" y="9.142857142857142" width="43.74999999999999" height="22.857142857142854" as="geometry" />
        </mxCell>
        <mxCell id="3RXiinGD9AzOw28SL5Pv-7" value="&gt;" style="strokeWidth=1;shadow=0;dashed=0;align=center;html=1;shape=mxgraph.mockup.forms.rrect;rSize=4;strokeColor=#999999;fontColor=#008cff;fontSize=19;fontStyle=1;" vertex="1" parent="3RXiinGD9AzOw28SL5Pv-4">
          <mxGeometry x="222.25" y="9.142857142857142" width="43.74999999999999" height="22.857142857142854" as="geometry" />
        </mxCell>
        <mxCell id="3RXiinGD9AzOw28SL5Pv-8" value="Mo" style="strokeWidth=1;shadow=0;dashed=0;align=center;html=1;shape=mxgraph.mockup.forms.anchor;fontColor=#999999;" vertex="1" parent="3RXiinGD9AzOw28SL5Pv-4">
          <mxGeometry x="17.5" y="31.999999999999993" width="35" height="22.857142857142854" as="geometry" />
        </mxCell>
        <mxCell id="3RXiinGD9AzOw28SL5Pv-9" value="Tu" style="strokeWidth=1;shadow=0;dashed=0;align=center;html=1;shape=mxgraph.mockup.forms.anchor;fontColor=#999999;" vertex="1" parent="3RXiinGD9AzOw28SL5Pv-4">
          <mxGeometry x="52.5" y="31.999999999999993" width="35" height="22.857142857142854" as="geometry" />
        </mxCell>
        <mxCell id="3RXiinGD9AzOw28SL5Pv-10" value="We" style="strokeWidth=1;shadow=0;dashed=0;align=center;html=1;shape=mxgraph.mockup.forms.anchor;fontColor=#999999;" vertex="1" parent="3RXiinGD9AzOw28SL5Pv-4">
          <mxGeometry x="87.49999999999999" y="31.999999999999993" width="35" height="22.857142857142854" as="geometry" />
        </mxCell>
        <mxCell id="3RXiinGD9AzOw28SL5Pv-11" value="Th" style="strokeWidth=1;shadow=0;dashed=0;align=center;html=1;shape=mxgraph.mockup.forms.anchor;fontColor=#999999;" vertex="1" parent="3RXiinGD9AzOw28SL5Pv-4">
          <mxGeometry x="122.49999999999999" y="31.999999999999993" width="35" height="22.857142857142854" as="geometry" />
        </mxCell>
        <mxCell id="3RXiinGD9AzOw28SL5Pv-12" value="Fr" style="strokeWidth=1;shadow=0;dashed=0;align=center;html=1;shape=mxgraph.mockup.forms.anchor;fontColor=#999999;" vertex="1" parent="3RXiinGD9AzOw28SL5Pv-4">
          <mxGeometry x="157.5" y="31.999999999999993" width="35" height="22.857142857142854" as="geometry" />
        </mxCell>
        <mxCell id="3RXiinGD9AzOw28SL5Pv-13" value="Sa" style="strokeWidth=1;shadow=0;dashed=0;align=center;html=1;shape=mxgraph.mockup.forms.anchor;fontColor=#999999;" vertex="1" parent="3RXiinGD9AzOw28SL5Pv-4">
          <mxGeometry x="192.5" y="31.999999999999993" width="35" height="22.857142857142854" as="geometry" />
        </mxCell>
        <mxCell id="3RXiinGD9AzOw28SL5Pv-14" value="Su" style="strokeWidth=1;shadow=0;dashed=0;align=center;html=1;shape=mxgraph.mockup.forms.anchor;fontColor=#999999;" vertex="1" parent="3RXiinGD9AzOw28SL5Pv-4">
          <mxGeometry x="227.49999999999997" y="31.999999999999993" width="35" height="22.857142857142854" as="geometry" />
        </mxCell>
        <mxCell id="3RXiinGD9AzOw28SL5Pv-15" value="1" style="strokeWidth=1;shadow=0;dashed=0;align=center;html=1;shape=mxgraph.mockup.forms.rrect;rSize=0;strokeColor=#999999;fontColor=#999999;" vertex="1" parent="3RXiinGD9AzOw28SL5Pv-4">
          <mxGeometry x="17.5" y="54.85714285714285" width="35" height="22.857142857142854" as="geometry" />
        </mxCell>
        <mxCell id="3RXiinGD9AzOw28SL5Pv-16" value="2" style="strokeWidth=1;shadow=0;dashed=0;align=center;html=1;shape=mxgraph.mockup.forms.rrect;rSize=0;strokeColor=#999999;fontColor=#999999;" vertex="1" parent="3RXiinGD9AzOw28SL5Pv-4">
          <mxGeometry x="52.5" y="54.85714285714285" width="35" height="22.857142857142854" as="geometry" />
        </mxCell>
        <mxCell id="3RXiinGD9AzOw28SL5Pv-17" value="3" style="strokeWidth=1;shadow=0;dashed=0;align=center;html=1;shape=mxgraph.mockup.forms.rrect;rSize=0;strokeColor=#999999;fontColor=#999999;" vertex="1" parent="3RXiinGD9AzOw28SL5Pv-4">
          <mxGeometry x="87.49999999999999" y="54.85714285714285" width="35" height="22.857142857142854" as="geometry" />
        </mxCell>
        <mxCell id="3RXiinGD9AzOw28SL5Pv-18" value="4" style="strokeWidth=1;shadow=0;dashed=0;align=center;html=1;shape=mxgraph.mockup.forms.rrect;rSize=0;strokeColor=#999999;fontColor=#999999;" vertex="1" parent="3RXiinGD9AzOw28SL5Pv-4">
          <mxGeometry x="122.49999999999999" y="54.85714285714285" width="35" height="22.857142857142854" as="geometry" />
        </mxCell>
        <mxCell id="3RXiinGD9AzOw28SL5Pv-19" value="5" style="strokeWidth=1;shadow=0;dashed=0;align=center;html=1;shape=mxgraph.mockup.forms.rrect;rSize=0;strokeColor=#999999;fontColor=#999999;" vertex="1" parent="3RXiinGD9AzOw28SL5Pv-4">
          <mxGeometry x="157.5" y="54.85714285714285" width="35" height="22.857142857142854" as="geometry" />
        </mxCell>
        <mxCell id="3RXiinGD9AzOw28SL5Pv-20" value="6" style="strokeWidth=1;shadow=0;dashed=0;align=center;html=1;shape=mxgraph.mockup.forms.rrect;rSize=0;strokeColor=#999999;fontColor=#999999;" vertex="1" parent="3RXiinGD9AzOw28SL5Pv-4">
          <mxGeometry x="192.5" y="54.85714285714285" width="35" height="22.857142857142854" as="geometry" />
        </mxCell>
        <mxCell id="3RXiinGD9AzOw28SL5Pv-21" value="7" style="strokeWidth=1;shadow=0;dashed=0;align=center;html=1;shape=mxgraph.mockup.forms.rrect;rSize=0;strokeColor=#999999;fontColor=#999999;" vertex="1" parent="3RXiinGD9AzOw28SL5Pv-4">
          <mxGeometry x="227.49999999999997" y="54.85714285714285" width="35" height="22.857142857142854" as="geometry" />
        </mxCell>
        <mxCell id="3RXiinGD9AzOw28SL5Pv-22" value="8" style="strokeWidth=1;shadow=0;dashed=0;align=center;html=1;shape=mxgraph.mockup.forms.rrect;rSize=0;strokeColor=#999999;fontColor=#999999;" vertex="1" parent="3RXiinGD9AzOw28SL5Pv-4">
          <mxGeometry x="17.5" y="77.71428571428571" width="35" height="22.857142857142854" as="geometry" />
        </mxCell>
        <mxCell id="3RXiinGD9AzOw28SL5Pv-23" value="9" style="strokeWidth=1;shadow=0;dashed=0;align=center;html=1;shape=mxgraph.mockup.forms.rrect;rSize=0;strokeColor=#999999;fontColor=#999999;" vertex="1" parent="3RXiinGD9AzOw28SL5Pv-4">
          <mxGeometry x="52.5" y="77.71428571428571" width="35" height="22.857142857142854" as="geometry" />
        </mxCell>
        <mxCell id="3RXiinGD9AzOw28SL5Pv-24" value="10" style="strokeWidth=1;shadow=0;dashed=0;align=center;html=1;shape=mxgraph.mockup.forms.rrect;rSize=0;strokeColor=#999999;fontColor=#999999;" vertex="1" parent="3RXiinGD9AzOw28SL5Pv-4">
          <mxGeometry x="87.49999999999999" y="77.71428571428571" width="35" height="22.857142857142854" as="geometry" />
        </mxCell>
        <mxCell id="3RXiinGD9AzOw28SL5Pv-25" value="11" style="strokeWidth=1;shadow=0;dashed=0;align=center;html=1;shape=mxgraph.mockup.forms.rrect;rSize=0;strokeColor=#999999;fontColor=#999999;" vertex="1" parent="3RXiinGD9AzOw28SL5Pv-4">
          <mxGeometry x="122.49999999999999" y="77.71428571428571" width="35" height="22.857142857142854" as="geometry" />
        </mxCell>
        <mxCell id="3RXiinGD9AzOw28SL5Pv-26" value="12" style="strokeWidth=1;shadow=0;dashed=0;align=center;html=1;shape=mxgraph.mockup.forms.rrect;rSize=0;strokeColor=#999999;fontColor=#999999;" vertex="1" parent="3RXiinGD9AzOw28SL5Pv-4">
          <mxGeometry x="157.5" y="77.71428571428571" width="35" height="22.857142857142854" as="geometry" />
        </mxCell>
        <mxCell id="3RXiinGD9AzOw28SL5Pv-27" value="13" style="strokeWidth=1;shadow=0;dashed=0;align=center;html=1;shape=mxgraph.mockup.forms.rrect;rSize=0;strokeColor=#999999;fontColor=#999999;" vertex="1" parent="3RXiinGD9AzOw28SL5Pv-4">
          <mxGeometry x="192.5" y="77.71428571428571" width="35" height="22.857142857142854" as="geometry" />
        </mxCell>
        <mxCell id="3RXiinGD9AzOw28SL5Pv-28" value="14" style="strokeWidth=1;shadow=0;dashed=0;align=center;html=1;shape=mxgraph.mockup.forms.rrect;rSize=0;strokeColor=#999999;fontColor=#999999;" vertex="1" parent="3RXiinGD9AzOw28SL5Pv-4">
          <mxGeometry x="227.49999999999997" y="77.71428571428571" width="35" height="22.857142857142854" as="geometry" />
        </mxCell>
        <mxCell id="3RXiinGD9AzOw28SL5Pv-29" value="15" style="strokeWidth=1;shadow=0;dashed=0;align=center;html=1;shape=mxgraph.mockup.forms.rrect;rSize=0;strokeColor=#999999;fontColor=#999999;" vertex="1" parent="3RXiinGD9AzOw28SL5Pv-4">
          <mxGeometry x="17.5" y="100.57142857142854" width="35" height="22.857142857142854" as="geometry" />
        </mxCell>
        <mxCell id="3RXiinGD9AzOw28SL5Pv-30" value="16" style="strokeWidth=1;shadow=0;dashed=0;align=center;html=1;shape=mxgraph.mockup.forms.rrect;rSize=0;strokeColor=#999999;fontColor=#999999;" vertex="1" parent="3RXiinGD9AzOw28SL5Pv-4">
          <mxGeometry x="52.5" y="100.57142857142854" width="35" height="22.857142857142854" as="geometry" />
        </mxCell>
        <mxCell id="3RXiinGD9AzOw28SL5Pv-31" value="17" style="strokeWidth=1;shadow=0;dashed=0;align=center;html=1;shape=mxgraph.mockup.forms.rrect;rSize=0;strokeColor=#999999;fontColor=#999999;" vertex="1" parent="3RXiinGD9AzOw28SL5Pv-4">
          <mxGeometry x="87.49999999999999" y="100.57142857142854" width="35" height="22.857142857142854" as="geometry" />
        </mxCell>
        <mxCell id="3RXiinGD9AzOw28SL5Pv-32" value="18" style="strokeWidth=1;shadow=0;dashed=0;align=center;html=1;shape=mxgraph.mockup.forms.rrect;rSize=0;strokeColor=#999999;fontColor=#999999;" vertex="1" parent="3RXiinGD9AzOw28SL5Pv-4">
          <mxGeometry x="122.49999999999999" y="100.57142857142854" width="35" height="22.857142857142854" as="geometry" />
        </mxCell>
        <mxCell id="3RXiinGD9AzOw28SL5Pv-33" value="19" style="strokeWidth=1;shadow=0;dashed=0;align=center;html=1;shape=mxgraph.mockup.forms.rrect;rSize=0;strokeColor=#999999;fontColor=#999999;" vertex="1" parent="3RXiinGD9AzOw28SL5Pv-4">
          <mxGeometry x="157.5" y="100.57142857142854" width="35" height="22.857142857142854" as="geometry" />
        </mxCell>
        <mxCell id="3RXiinGD9AzOw28SL5Pv-34" value="20" style="strokeWidth=1;shadow=0;dashed=0;align=center;html=1;shape=mxgraph.mockup.forms.rrect;rSize=0;strokeColor=#999999;fontColor=#999999;" vertex="1" parent="3RXiinGD9AzOw28SL5Pv-4">
          <mxGeometry x="192.5" y="100.57142857142854" width="35" height="22.857142857142854" as="geometry" />
        </mxCell>
        <mxCell id="3RXiinGD9AzOw28SL5Pv-35" value="21" style="strokeWidth=1;shadow=0;dashed=0;align=center;html=1;shape=mxgraph.mockup.forms.rrect;rSize=0;strokeColor=#999999;fontColor=#999999;" vertex="1" parent="3RXiinGD9AzOw28SL5Pv-4">
          <mxGeometry x="227.49999999999997" y="100.57142857142854" width="35" height="22.857142857142854" as="geometry" />
        </mxCell>
        <mxCell id="3RXiinGD9AzOw28SL5Pv-36" value="22" style="strokeWidth=1;shadow=0;dashed=0;align=center;html=1;shape=mxgraph.mockup.forms.rrect;rSize=0;strokeColor=#999999;fontColor=#999999;" vertex="1" parent="3RXiinGD9AzOw28SL5Pv-4">
          <mxGeometry x="17.5" y="123.4285714285714" width="35" height="22.857142857142854" as="geometry" />
        </mxCell>
        <mxCell id="3RXiinGD9AzOw28SL5Pv-37" value="23" style="strokeWidth=1;shadow=0;dashed=0;align=center;html=1;shape=mxgraph.mockup.forms.rrect;rSize=0;strokeColor=#999999;fontColor=#999999;" vertex="1" parent="3RXiinGD9AzOw28SL5Pv-4">
          <mxGeometry x="52.5" y="123.4285714285714" width="35" height="22.857142857142854" as="geometry" />
        </mxCell>
        <mxCell id="3RXiinGD9AzOw28SL5Pv-38" value="25" style="strokeWidth=1;shadow=0;dashed=0;align=center;html=1;shape=mxgraph.mockup.forms.rrect;rSize=0;strokeColor=#999999;fontColor=#999999;" vertex="1" parent="3RXiinGD9AzOw28SL5Pv-4">
          <mxGeometry x="122.49999999999999" y="123.4285714285714" width="35" height="22.857142857142854" as="geometry" />
        </mxCell>
        <mxCell id="3RXiinGD9AzOw28SL5Pv-39" value="26" style="strokeWidth=1;shadow=0;dashed=0;align=center;html=1;shape=mxgraph.mockup.forms.rrect;rSize=0;strokeColor=#999999;fontColor=#999999;" vertex="1" parent="3RXiinGD9AzOw28SL5Pv-4">
          <mxGeometry x="157.5" y="123.4285714285714" width="35" height="22.857142857142854" as="geometry" />
        </mxCell>
        <mxCell id="3RXiinGD9AzOw28SL5Pv-40" value="27" style="strokeWidth=1;shadow=0;dashed=0;align=center;html=1;shape=mxgraph.mockup.forms.rrect;rSize=0;strokeColor=#999999;fontColor=#999999;" vertex="1" parent="3RXiinGD9AzOw28SL5Pv-4">
          <mxGeometry x="192.5" y="123.4285714285714" width="35" height="22.857142857142854" as="geometry" />
        </mxCell>
        <mxCell id="3RXiinGD9AzOw28SL5Pv-41" value="28" style="strokeWidth=1;shadow=0;dashed=0;align=center;html=1;shape=mxgraph.mockup.forms.rrect;rSize=0;strokeColor=#999999;fontColor=#999999;" vertex="1" parent="3RXiinGD9AzOw28SL5Pv-4">
          <mxGeometry x="227.49999999999997" y="123.4285714285714" width="35" height="22.857142857142854" as="geometry" />
        </mxCell>
        <mxCell id="3RXiinGD9AzOw28SL5Pv-42" value="29" style="strokeWidth=1;shadow=0;dashed=0;align=center;html=1;shape=mxgraph.mockup.forms.rrect;rSize=0;strokeColor=#999999;fontColor=#999999;" vertex="1" parent="3RXiinGD9AzOw28SL5Pv-4">
          <mxGeometry x="17.5" y="146.28571428571428" width="35" height="22.857142857142854" as="geometry" />
        </mxCell>
        <mxCell id="3RXiinGD9AzOw28SL5Pv-43" value="30" style="strokeWidth=1;shadow=0;dashed=0;align=center;html=1;shape=mxgraph.mockup.forms.rrect;rSize=0;strokeColor=#999999;fontColor=#999999;" vertex="1" parent="3RXiinGD9AzOw28SL5Pv-4">
          <mxGeometry x="52.5" y="146.28571428571428" width="35" height="22.857142857142854" as="geometry" />
        </mxCell>
        <mxCell id="3RXiinGD9AzOw28SL5Pv-44" value="31" style="strokeWidth=1;shadow=0;dashed=0;align=center;html=1;shape=mxgraph.mockup.forms.rrect;rSize=0;strokeColor=#999999;fontColor=#999999;" vertex="1" parent="3RXiinGD9AzOw28SL5Pv-4">
          <mxGeometry x="87.49999999999999" y="146.28571428571428" width="35" height="22.857142857142854" as="geometry" />
        </mxCell>
        <mxCell id="3RXiinGD9AzOw28SL5Pv-45" value="1" style="strokeWidth=1;shadow=0;dashed=0;align=center;html=1;shape=mxgraph.mockup.forms.rrect;rSize=0;strokeColor=#999999;fontColor=#999999;fillColor=#ddeeff;" vertex="1" parent="3RXiinGD9AzOw28SL5Pv-4">
          <mxGeometry x="122.49999999999999" y="146.28571428571428" width="35" height="22.857142857142854" as="geometry" />
        </mxCell>
        <mxCell id="3RXiinGD9AzOw28SL5Pv-46" value="2" style="strokeWidth=1;shadow=0;dashed=0;align=center;html=1;shape=mxgraph.mockup.forms.rrect;rSize=0;strokeColor=#999999;fontColor=#999999;fillColor=#ddeeff;" vertex="1" parent="3RXiinGD9AzOw28SL5Pv-4">
          <mxGeometry x="157.5" y="146.28571428571428" width="35" height="22.857142857142854" as="geometry" />
        </mxCell>
        <mxCell id="3RXiinGD9AzOw28SL5Pv-47" value="3" style="strokeWidth=1;shadow=0;dashed=0;align=center;html=1;shape=mxgraph.mockup.forms.rrect;rSize=0;strokeColor=#999999;fontColor=#999999;fillColor=#ddeeff;" vertex="1" parent="3RXiinGD9AzOw28SL5Pv-4">
          <mxGeometry x="192.5" y="146.28571428571428" width="35" height="22.857142857142854" as="geometry" />
        </mxCell>
        <mxCell id="3RXiinGD9AzOw28SL5Pv-48" value="4" style="strokeWidth=1;shadow=0;dashed=0;align=center;html=1;shape=mxgraph.mockup.forms.rrect;rSize=0;strokeColor=#999999;fontColor=#999999;fillColor=#ddeeff;" vertex="1" parent="3RXiinGD9AzOw28SL5Pv-4">
          <mxGeometry x="227.49999999999997" y="146.28571428571428" width="35" height="22.857142857142854" as="geometry" />
        </mxCell>
        <mxCell id="3RXiinGD9AzOw28SL5Pv-49" value="5" style="strokeWidth=1;shadow=0;dashed=0;align=center;html=1;shape=mxgraph.mockup.forms.rrect;rSize=0;strokeColor=#999999;fontColor=#999999;fillColor=#ddeeff;" vertex="1" parent="3RXiinGD9AzOw28SL5Pv-4">
          <mxGeometry x="17.5" y="169.14285714285714" width="35" height="22.857142857142854" as="geometry" />
        </mxCell>
        <mxCell id="3RXiinGD9AzOw28SL5Pv-50" value="6" style="strokeWidth=1;shadow=0;dashed=0;align=center;html=1;shape=mxgraph.mockup.forms.rrect;rSize=0;strokeColor=#999999;fontColor=#999999;fillColor=#ddeeff;" vertex="1" parent="3RXiinGD9AzOw28SL5Pv-4">
          <mxGeometry x="52.5" y="169.14285714285714" width="35" height="22.857142857142854" as="geometry" />
        </mxCell>
        <mxCell id="3RXiinGD9AzOw28SL5Pv-51" value="7" style="strokeWidth=1;shadow=0;dashed=0;align=center;html=1;shape=mxgraph.mockup.forms.rrect;rSize=0;strokeColor=#999999;fontColor=#999999;fillColor=#ddeeff;" vertex="1" parent="3RXiinGD9AzOw28SL5Pv-4">
          <mxGeometry x="87.49999999999999" y="169.14285714285714" width="35" height="22.857142857142854" as="geometry" />
        </mxCell>
        <mxCell id="3RXiinGD9AzOw28SL5Pv-52" value="8" style="strokeWidth=1;shadow=0;dashed=0;align=center;html=1;shape=mxgraph.mockup.forms.rrect;rSize=0;strokeColor=#999999;fontColor=#999999;fillColor=#ddeeff;" vertex="1" parent="3RXiinGD9AzOw28SL5Pv-4">
          <mxGeometry x="122.49999999999999" y="169.14285714285714" width="35" height="22.857142857142854" as="geometry" />
        </mxCell>
        <mxCell id="3RXiinGD9AzOw28SL5Pv-53" value="9" style="strokeWidth=1;shadow=0;dashed=0;align=center;html=1;shape=mxgraph.mockup.forms.rrect;rSize=0;strokeColor=#999999;fontColor=#999999;fillColor=#ddeeff;" vertex="1" parent="3RXiinGD9AzOw28SL5Pv-4">
          <mxGeometry x="157.5" y="169.14285714285714" width="35" height="22.857142857142854" as="geometry" />
        </mxCell>
        <mxCell id="3RXiinGD9AzOw28SL5Pv-54" value="10" style="strokeWidth=1;shadow=0;dashed=0;align=center;html=1;shape=mxgraph.mockup.forms.rrect;rSize=0;strokeColor=#999999;fontColor=#999999;fillColor=#ddeeff;" vertex="1" parent="3RXiinGD9AzOw28SL5Pv-4">
          <mxGeometry x="192.5" y="169.14285714285714" width="35" height="22.857142857142854" as="geometry" />
        </mxCell>
        <mxCell id="3RXiinGD9AzOw28SL5Pv-55" value="11" style="strokeWidth=1;shadow=0;dashed=0;align=center;html=1;shape=mxgraph.mockup.forms.rrect;rSize=0;strokeColor=#999999;fontColor=#999999;fillColor=#ddeeff;" vertex="1" parent="3RXiinGD9AzOw28SL5Pv-4">
          <mxGeometry x="227.49999999999997" y="169.14285714285714" width="35" height="22.857142857142854" as="geometry" />
        </mxCell>
        <mxCell id="3RXiinGD9AzOw28SL5Pv-56" value="24" style="strokeWidth=1;shadow=0;dashed=0;align=center;html=1;shape=mxgraph.mockup.forms.rrect;rSize=0;strokeColor=#ff0000;fontColor=#ffffff;strokeWidth=2;fillColor=#008cff;" vertex="1" parent="3RXiinGD9AzOw28SL5Pv-4">
          <mxGeometry x="87.49999999999999" y="123.4285714285714" width="35" height="22.857142857142854" as="geometry" />
        </mxCell>
        <mxCell id="3RXiinGD9AzOw28SL5Pv-57" value="Lastname &lt;font color=&quot;#cc0000&quot;&gt;*&lt;/font&gt;" style="html=1;shadow=0;dashed=0;shape=mxgraph.bootstrap.rect;strokeColor=none;fillColor=none;fontColor=#999999;align=left;spacingLeft=5;whiteSpace=wrap;rounded=0;" vertex="1" parent="1">
          <mxGeometry x="560" y="240" width="120" height="20" as="geometry" />
        </mxCell>
        <mxCell id="3RXiinGD9AzOw28SL5Pv-58" value="Armstrong" style="html=1;shadow=0;dashed=0;shape=mxgraph.bootstrap.rrect;rSize=5;strokeColor=#dddddd;;align=left;spacingLeft=10;fontSize=16;whiteSpace=wrap;rounded=0;" vertex="1" parent="1">
          <mxGeometry x="560" y="260" width="280" height="40" as="geometry" />
        </mxCell>
        <mxCell id="3RXiinGD9AzOw28SL5Pv-59" value="Middlename (Optional)" style="html=1;shadow=0;dashed=0;shape=mxgraph.bootstrap.rect;strokeColor=none;fillColor=none;fontColor=#999999;align=left;spacingLeft=5;whiteSpace=wrap;rounded=0;" vertex="1" parent="1">
          <mxGeometry x="360" y="240" width="160" height="20" as="geometry" />
        </mxCell>
        <mxCell id="3RXiinGD9AzOw28SL5Pv-60" value="" style="html=1;shadow=0;dashed=0;shape=mxgraph.bootstrap.rrect;rSize=5;strokeColor=#dddddd;;align=left;spacingLeft=10;fontSize=16;whiteSpace=wrap;rounded=0;" vertex="1" parent="1">
          <mxGeometry x="360" y="260" width="160" height="40" as="geometry" />
        </mxCell>
        <mxCell id="3RXiinGD9AzOw28SL5Pv-61" value="Date of birth &lt;font color=&quot;#cc0000&quot;&gt;*&lt;/font&gt;" style="html=1;shadow=0;dashed=0;shape=mxgraph.bootstrap.rect;strokeColor=none;fillColor=none;fontColor=#999999;align=left;spacingLeft=5;whiteSpace=wrap;rounded=0;" vertex="1" parent="1">
          <mxGeometry x="560" y="310" width="150" height="20" as="geometry" />
        </mxCell>
        <mxCell id="3RXiinGD9AzOw28SL5Pv-70" value="Sex &lt;font color=&quot;#cc0000&quot;&gt;*&lt;/font&gt;" style="html=1;shadow=0;dashed=0;shape=mxgraph.bootstrap.rect;strokeColor=none;fillColor=none;fontColor=#999999;align=left;spacingLeft=5;whiteSpace=wrap;rounded=0;" vertex="1" parent="1">
          <mxGeometry x="360" y="310" width="60" height="20" as="geometry" />
        </mxCell>
        <mxCell id="3RXiinGD9AzOw28SL5Pv-72" value="Male" style="shape=ellipse;fillColor=#eeeeee;strokeColor=#999999;gradientColor=#cccccc;html=1;align=left;spacingLeft=4;fontSize=17;fontColor=#666666;labelPosition=right;shadow=0;" vertex="1" parent="1">
          <mxGeometry x="370" y="342.5" width="15" height="15" as="geometry" />
        </mxCell>
        <mxCell id="3RXiinGD9AzOw28SL5Pv-73" value="Female" style="shape=ellipse;fillColor=#eeeeee;strokeColor=#999999;gradientColor=#cccccc;html=1;align=left;spacingLeft=4;fontSize=17;fontColor=#666666;labelPosition=right;shadow=0;" vertex="1" parent="1">
          <mxGeometry x="440" y="342.5" width="15" height="15" as="geometry" />
        </mxCell>
        <mxCell id="3RXiinGD9AzOw28SL5Pv-97" value="Referral Source (Optional)" style="html=1;shadow=0;dashed=0;shape=mxgraph.bootstrap.rect;strokeColor=none;fillColor=none;fontColor=#999999;align=left;spacingLeft=5;whiteSpace=wrap;rounded=0;" vertex="1" parent="1">
          <mxGeometry x="40" y="470" width="200" height="20" as="geometry" />
        </mxCell>
        <mxCell id="3RXiinGD9AzOw28SL5Pv-98" value="" style="html=1;shadow=0;dashed=0;shape=mxgraph.bootstrap.rrect;rSize=5;strokeColor=#dddddd;;align=left;spacingLeft=10;fontSize=16;whiteSpace=wrap;rounded=0;" vertex="1" parent="1">
          <mxGeometry x="40" y="490" width="280" height="40" as="geometry" />
        </mxCell>
        <mxCell id="3RXiinGD9AzOw28SL5Pv-99" value="Phone number &lt;font color=&quot;#cc0000&quot;&gt;*&lt;/font&gt;" style="html=1;shadow=0;dashed=0;shape=mxgraph.bootstrap.rect;strokeColor=none;fillColor=none;fontColor=#999999;align=left;spacingLeft=5;whiteSpace=wrap;rounded=0;" vertex="1" parent="1">
          <mxGeometry x="360" y="390" width="160" height="20" as="geometry" />
        </mxCell>
        <mxCell id="3RXiinGD9AzOw28SL5Pv-100" value="123-456-7890" style="html=1;shadow=0;dashed=0;shape=mxgraph.bootstrap.rrect;rSize=5;strokeColor=#dddddd;;align=left;spacingLeft=10;fontSize=16;whiteSpace=wrap;rounded=0;" vertex="1" parent="1">
          <mxGeometry x="360" y="410" width="160" height="40" as="geometry" />
        </mxCell>
        <mxCell id="3RXiinGD9AzOw28SL5Pv-101" value="Email Address (Optional)" style="html=1;shadow=0;dashed=0;shape=mxgraph.bootstrap.rect;strokeColor=none;fillColor=none;fontColor=#999999;align=left;spacingLeft=5;whiteSpace=wrap;rounded=0;" vertex="1" parent="1">
          <mxGeometry x="40" y="390" width="200" height="20" as="geometry" />
        </mxCell>
        <mxCell id="3RXiinGD9AzOw28SL5Pv-102" value="sams1234567@gmail.com" style="html=1;shadow=0;dashed=0;shape=mxgraph.bootstrap.rrect;rSize=5;strokeColor=#dddddd;;align=left;spacingLeft=10;fontSize=16;whiteSpace=wrap;rounded=0;" vertex="1" parent="1">
          <mxGeometry x="40" y="410" width="280" height="40" as="geometry" />
        </mxCell>
        <mxCell id="3RXiinGD9AzOw28SL5Pv-103" value="Social Security Number (SSN) &lt;font color=&quot;#cc0000&quot;&gt;*&lt;/font&gt;" style="html=1;shadow=0;dashed=0;shape=mxgraph.bootstrap.rect;strokeColor=none;fillColor=none;fontColor=#999999;align=left;spacingLeft=5;whiteSpace=wrap;rounded=0;" vertex="1" parent="1">
          <mxGeometry x="40" y="310" width="190" height="20" as="geometry" />
        </mxCell>
        <mxCell id="3RXiinGD9AzOw28SL5Pv-104" value="1777761033" style="html=1;shadow=0;dashed=0;shape=mxgraph.bootstrap.rrect;rSize=5;strokeColor=#dddddd;;align=left;spacingLeft=10;fontSize=16;whiteSpace=wrap;rounded=0;" vertex="1" parent="1">
          <mxGeometry x="40" y="330" width="280" height="40" as="geometry" />
        </mxCell>
        <mxCell id="3RXiinGD9AzOw28SL5Pv-105" value="&lt;font style=&quot;font-size: 18px;&quot; color=&quot;#006600&quot; face=&quot;Verdana&quot;&gt;&lt;b&gt;Patient Registration Form&lt;br&gt;&lt;/b&gt;&lt;/font&gt;" style="text;html=1;align=center;verticalAlign=middle;whiteSpace=wrap;rounded=0;fillColor=#f5f5f5;strokeColor=#666666;fontColor=#333333;" vertex="1" parent="1">
          <mxGeometry x="40" y="160" width="800" height="40" as="geometry" />
        </mxCell>
        <mxCell id="3RXiinGD9AzOw28SL5Pv-106" value="&lt;font color=&quot;#006600&quot; face=&quot;Verdana&quot;&gt;&lt;b&gt;2. Address&lt;br&gt;&lt;/b&gt;&lt;/font&gt;" style="text;html=1;align=left;verticalAlign=middle;whiteSpace=wrap;rounded=0;" vertex="1" parent="1">
          <mxGeometry x="40" y="530" width="800" height="40" as="geometry" />
        </mxCell>
        <mxCell id="3RXiinGD9AzOw28SL5Pv-107" value="Age &lt;font color=&quot;#cc0000&quot;&gt;*&lt;/font&gt;" style="html=1;shadow=0;dashed=0;shape=mxgraph.bootstrap.rect;strokeColor=none;fillColor=none;fontColor=#999999;align=left;spacingLeft=5;whiteSpace=wrap;rounded=0;" vertex="1" parent="1">
          <mxGeometry x="360" y="470" width="160" height="20" as="geometry" />
        </mxCell>
        <mxCell id="3RXiinGD9AzOw28SL5Pv-108" value="20" style="html=1;shadow=0;dashed=0;shape=mxgraph.bootstrap.rrect;rSize=5;strokeColor=#dddddd;;align=left;spacingLeft=10;fontSize=16;whiteSpace=wrap;rounded=0;" vertex="1" parent="1">
          <mxGeometry x="360" y="490" width="160" height="40" as="geometry" />
        </mxCell>
        <mxCell id="3RXiinGD9AzOw28SL5Pv-109" value="1333" style="html=1;shadow=0;dashed=0;shape=mxgraph.bootstrap.rrect;rSize=5;strokeColor=#dddddd;;align=left;spacingLeft=10;fontSize=16;whiteSpace=wrap;rounded=0;" vertex="1" parent="1">
          <mxGeometry x="40" y="590" width="280" height="40" as="geometry" />
        </mxCell>
        <mxCell id="3RXiinGD9AzOw28SL5Pv-110" value="Street Name&lt;font color=&quot;#cc0000&quot;&gt; *&lt;/font&gt;" style="html=1;shadow=0;dashed=0;shape=mxgraph.bootstrap.rect;strokeColor=none;fillColor=none;fontColor=#999999;align=left;spacingLeft=5;whiteSpace=wrap;rounded=0;" vertex="1" parent="1">
          <mxGeometry x="40" y="570" width="280" height="20" as="geometry" />
        </mxCell>
        <mxCell id="3RXiinGD9AzOw28SL5Pv-112" value="City/Town&lt;font color=&quot;#cc0000&quot;&gt; *&lt;/font&gt;" style="html=1;shadow=0;dashed=0;shape=mxgraph.bootstrap.rect;strokeColor=none;fillColor=none;fontColor=#999999;align=left;spacingLeft=5;whiteSpace=wrap;rounded=0;" vertex="1" parent="1">
          <mxGeometry x="560" y="570" width="200" height="20" as="geometry" />
        </mxCell>
        <mxCell id="3RXiinGD9AzOw28SL5Pv-113" value="Stoney Creek" style="html=1;shadow=0;dashed=0;shape=mxgraph.bootstrap.rrect;rSize=5;strokeColor=#505050;strokeWidth=1;fillColor=#ffffff;fontColor=#777777;whiteSpace=wrap;align=left;verticalAlign=middle;fontStyle=0;fontSize=14;spacingRight=0;spacing=17;" vertex="1" parent="1">
          <mxGeometry x="560" y="590" width="280" height="40" as="geometry" />
        </mxCell>
        <mxCell id="3RXiinGD9AzOw28SL5Pv-114" value="" style="shape=triangle;direction=south;fillColor=#495057;strokeColor=none;perimeter=none;" vertex="1" parent="3RXiinGD9AzOw28SL5Pv-113">
          <mxGeometry x="1" y="0.5" width="10" height="5" relative="1" as="geometry">
            <mxPoint x="-17" y="-2.5" as="offset" />
          </mxGeometry>
        </mxCell>
        <mxCell id="3RXiinGD9AzOw28SL5Pv-115" value="1333" style="html=1;shadow=0;dashed=0;shape=mxgraph.bootstrap.rrect;rSize=5;strokeColor=#dddddd;;align=left;spacingLeft=10;fontSize=16;whiteSpace=wrap;rounded=0;" vertex="1" parent="1">
          <mxGeometry x="360" y="590" width="160" height="40" as="geometry" />
        </mxCell>
        <mxCell id="3RXiinGD9AzOw28SL5Pv-116" value="Postal Code&lt;font color=&quot;#cc0000&quot;&gt; *&lt;/font&gt;" style="html=1;shadow=0;dashed=0;shape=mxgraph.bootstrap.rect;strokeColor=none;fillColor=none;fontColor=#999999;align=left;spacingLeft=5;whiteSpace=wrap;rounded=0;" vertex="1" parent="1">
          <mxGeometry x="360" y="570" width="200" height="20" as="geometry" />
        </mxCell>
        <mxCell id="3RXiinGD9AzOw28SL5Pv-117" value="&lt;font color=&quot;#006600&quot; face=&quot;Verdana&quot;&gt;&lt;b&gt;3. Insurances&lt;br&gt;&lt;/b&gt;&lt;/font&gt;" style="text;html=1;align=left;verticalAlign=middle;whiteSpace=wrap;rounded=0;" vertex="1" parent="1">
          <mxGeometry x="40" y="630" width="800" height="40" as="geometry" />
        </mxCell>
        <mxCell id="3RXiinGD9AzOw28SL5Pv-118" value="1333" style="html=1;shadow=0;dashed=0;shape=mxgraph.bootstrap.rrect;rSize=5;strokeColor=#dddddd;;align=left;spacingLeft=10;fontSize=16;whiteSpace=wrap;rounded=0;" vertex="1" parent="1">
          <mxGeometry x="40" y="690" width="280" height="40" as="geometry" />
        </mxCell>
        <mxCell id="3RXiinGD9AzOw28SL5Pv-119" value="Primary nsurance company name&lt;font color=&quot;#cc0000&quot;&gt; *&lt;/font&gt;" style="html=1;shadow=0;dashed=0;shape=mxgraph.bootstrap.rect;strokeColor=none;fillColor=none;fontColor=#999999;align=left;spacingLeft=5;whiteSpace=wrap;rounded=0;" vertex="1" parent="1">
          <mxGeometry x="40" y="670" width="280" height="20" as="geometry" />
        </mxCell>
        <mxCell id="3RXiinGD9AzOw28SL5Pv-123" value="1333" style="html=1;shadow=0;dashed=0;shape=mxgraph.bootstrap.rrect;rSize=5;strokeColor=#dddddd;;align=left;spacingLeft=10;fontSize=16;whiteSpace=wrap;rounded=0;" vertex="1" parent="1">
          <mxGeometry x="360" y="690" width="160" height="40" as="geometry" />
        </mxCell>
        <mxCell id="3RXiinGD9AzOw28SL5Pv-124" value="Primary Insurance Code&lt;font color=&quot;#cc0000&quot;&gt; *&lt;/font&gt;" style="html=1;shadow=0;dashed=0;shape=mxgraph.bootstrap.rect;strokeColor=none;fillColor=none;fontColor=#999999;align=left;spacingLeft=5;whiteSpace=wrap;rounded=0;" vertex="1" parent="1">
          <mxGeometry x="360" y="670" width="180" height="20" as="geometry" />
        </mxCell>
        <mxCell id="3RXiinGD9AzOw28SL5Pv-125" value="Patient is subscriber / Holder &lt;font color=&quot;#cc0000&quot;&gt;*&lt;/font&gt;" style="html=1;shadow=0;dashed=0;shape=mxgraph.bootstrap.rect;strokeColor=none;fillColor=none;fontColor=#999999;align=left;spacingLeft=5;whiteSpace=wrap;rounded=0;" vertex="1" parent="1">
          <mxGeometry x="560" y="670" width="200" height="20" as="geometry" />
        </mxCell>
        <mxCell id="3RXiinGD9AzOw28SL5Pv-126" value="Yes" style="shape=ellipse;fillColor=#eeeeee;strokeColor=#999999;gradientColor=#cccccc;html=1;align=left;spacingLeft=4;fontSize=17;fontColor=#666666;labelPosition=right;shadow=0;" vertex="1" parent="1">
          <mxGeometry x="570" y="702.5" width="15" height="15" as="geometry" />
        </mxCell>
        <mxCell id="3RXiinGD9AzOw28SL5Pv-127" value="No" style="shape=ellipse;fillColor=#eeeeee;strokeColor=#999999;gradientColor=#cccccc;html=1;align=left;spacingLeft=4;fontSize=17;fontColor=#666666;labelPosition=right;shadow=0;" vertex="1" parent="1">
          <mxGeometry x="640" y="702.5" width="15" height="15" as="geometry" />
        </mxCell>
        <mxCell id="3RXiinGD9AzOw28SL5Pv-136" value="&lt;font color=&quot;#006600&quot; face=&quot;Verdana&quot;&gt;&lt;b&gt;4. Emergency Contacts&lt;br&gt;&lt;/b&gt;&lt;/font&gt;" style="text;html=1;align=left;verticalAlign=middle;whiteSpace=wrap;rounded=0;" vertex="1" parent="1">
          <mxGeometry x="40" y="810" width="800" height="40" as="geometry" />
        </mxCell>
        <mxCell id="3RXiinGD9AzOw28SL5Pv-137" value="" style="html=1;shadow=0;dashed=0;shape=mxgraph.bootstrap.rrect;rSize=5;strokeColor=#dddddd;;align=left;spacingLeft=10;fontSize=16;whiteSpace=wrap;rounded=0;" vertex="1" parent="1">
          <mxGeometry x="40" y="870" width="280" height="40" as="geometry" />
        </mxCell>
        <mxCell id="3RXiinGD9AzOw28SL5Pv-138" value="Name &lt;font color=&quot;#cc0000&quot;&gt;*&lt;/font&gt;" style="html=1;shadow=0;dashed=0;shape=mxgraph.bootstrap.rect;strokeColor=none;fillColor=none;fontColor=#999999;align=left;spacingLeft=5;whiteSpace=wrap;rounded=0;" vertex="1" parent="1">
          <mxGeometry x="40" y="850" width="280" height="20" as="geometry" />
        </mxCell>
        <mxCell id="3RXiinGD9AzOw28SL5Pv-139" value="" style="html=1;shadow=0;dashed=0;shape=mxgraph.bootstrap.rrect;rSize=5;strokeColor=#dddddd;;align=left;spacingLeft=10;fontSize=16;whiteSpace=wrap;rounded=0;" vertex="1" parent="1">
          <mxGeometry x="360" y="870" width="160" height="40" as="geometry" />
        </mxCell>
        <mxCell id="3RXiinGD9AzOw28SL5Pv-140" value="Relationship to patient&lt;font color=&quot;#cc0000&quot;&gt; *&lt;/font&gt;" style="html=1;shadow=0;dashed=0;shape=mxgraph.bootstrap.rect;strokeColor=none;fillColor=none;fontColor=#999999;align=left;spacingLeft=5;whiteSpace=wrap;rounded=0;" vertex="1" parent="1">
          <mxGeometry x="360" y="850" width="200" height="20" as="geometry" />
        </mxCell>
        <mxCell id="3RXiinGD9AzOw28SL5Pv-144" value="1333" style="html=1;shadow=0;dashed=0;shape=mxgraph.bootstrap.rrect;rSize=5;strokeColor=#dddddd;;align=left;spacingLeft=10;fontSize=16;whiteSpace=wrap;rounded=0;" vertex="1" parent="1">
          <mxGeometry x="40" y="770" width="280" height="40" as="geometry" />
        </mxCell>
        <mxCell id="3RXiinGD9AzOw28SL5Pv-145" value="Secondary insurance company name&lt;font color=&quot;#cc0000&quot;&gt; *&lt;/font&gt;" style="html=1;shadow=0;dashed=0;shape=mxgraph.bootstrap.rect;strokeColor=none;fillColor=none;fontColor=#999999;align=left;spacingLeft=5;whiteSpace=wrap;rounded=0;" vertex="1" parent="1">
          <mxGeometry x="40" y="750" width="280" height="20" as="geometry" />
        </mxCell>
        <mxCell id="3RXiinGD9AzOw28SL5Pv-146" value="1333" style="html=1;shadow=0;dashed=0;shape=mxgraph.bootstrap.rrect;rSize=5;strokeColor=#dddddd;;align=left;spacingLeft=10;fontSize=16;whiteSpace=wrap;rounded=0;" vertex="1" parent="1">
          <mxGeometry x="360" y="770" width="160" height="40" as="geometry" />
        </mxCell>
        <mxCell id="3RXiinGD9AzOw28SL5Pv-147" value="Secondary Insurance Code&lt;font color=&quot;#cc0000&quot;&gt; *&lt;/font&gt;" style="html=1;shadow=0;dashed=0;shape=mxgraph.bootstrap.rect;strokeColor=none;fillColor=none;fontColor=#999999;align=left;spacingLeft=5;whiteSpace=wrap;rounded=0;" vertex="1" parent="1">
          <mxGeometry x="360" y="750" width="180" height="20" as="geometry" />
        </mxCell>
        <mxCell id="3RXiinGD9AzOw28SL5Pv-148" value="Patient is subscriber / Holder &lt;font color=&quot;#cc0000&quot;&gt;*&lt;/font&gt;" style="html=1;shadow=0;dashed=0;shape=mxgraph.bootstrap.rect;strokeColor=none;fillColor=none;fontColor=#999999;align=left;spacingLeft=5;whiteSpace=wrap;rounded=0;" vertex="1" parent="1">
          <mxGeometry x="560" y="750" width="200" height="20" as="geometry" />
        </mxCell>
        <mxCell id="3RXiinGD9AzOw28SL5Pv-149" value="Yes" style="shape=ellipse;fillColor=#eeeeee;strokeColor=#999999;gradientColor=#cccccc;html=1;align=left;spacingLeft=4;fontSize=17;fontColor=#666666;labelPosition=right;shadow=0;" vertex="1" parent="1">
          <mxGeometry x="570" y="782.5" width="15" height="15" as="geometry" />
        </mxCell>
        <mxCell id="3RXiinGD9AzOw28SL5Pv-150" value="No" style="shape=ellipse;fillColor=#eeeeee;strokeColor=#999999;gradientColor=#cccccc;html=1;align=left;spacingLeft=4;fontSize=17;fontColor=#666666;labelPosition=right;shadow=0;" vertex="1" parent="1">
          <mxGeometry x="640" y="782.5" width="15" height="15" as="geometry" />
        </mxCell>
        <mxCell id="3RXiinGD9AzOw28SL5Pv-156" value="&lt;div&gt;&lt;font color=&quot;#006600&quot; face=&quot;Verdana&quot;&gt;&lt;b&gt;5. First Diagnosis Information&lt;br&gt;&lt;/b&gt;&lt;/font&gt;&lt;/div&gt;" style="text;html=1;align=left;verticalAlign=middle;whiteSpace=wrap;rounded=0;" vertex="1" parent="1">
          <mxGeometry x="40" y="920" width="800" height="40" as="geometry" />
        </mxCell>
      </root>
    </mxGraphModel>
  </diagram>
</mxfile>
